# Blender v2.80 (sub 75) OBJ File: 'snakev2.blend'
# www.blender.org
mtllib snake_line.mtl
o snake_line_snake_line_Cylinder.004
v -1.000000 0.000000 -0.250000
v 1.000000 0.000000 -0.250000
v 1.000000 -0.048772 -0.245197
v -1.000000 -0.048772 -0.245197
v 1.000000 -0.095671 -0.230970
v -1.000000 -0.095671 -0.230970
v 1.000000 -0.138892 -0.207868
v -1.000000 -0.138892 -0.207868
v 1.000000 -0.176776 -0.176777
v -1.000000 -0.176776 -0.176777
v 1.000000 -0.207867 -0.138893
v -1.000000 -0.207867 -0.138893
v 1.000000 -0.230970 -0.095671
v -1.000000 -0.230970 -0.095671
v 1.000000 -0.245196 -0.048773
v -1.000000 -0.245196 -0.048773
v 1.000000 -0.250000 -0.000000
v -1.000000 -0.250000 -0.000000
v 1.000000 -0.245197 0.048772
v -1.000000 -0.245197 0.048772
v 1.000000 -0.230970 0.095671
v -1.000000 -0.230970 0.095671
v 1.000000 -0.207868 0.138892
v -1.000000 -0.207868 0.138892
v 1.000000 -0.176777 0.176776
v -1.000000 -0.176777 0.176776
v 1.000000 -0.138893 0.207867
v -1.000000 -0.138893 0.207867
v 1.000000 -0.095671 0.230970
v -1.000000 -0.095671 0.230970
v 1.000000 -0.048773 0.245196
v -1.000000 -0.048773 0.245196
v 1.000000 -0.000000 0.250000
v -1.000000 -0.000000 0.250000
v 1.000000 0.048772 0.245197
v -1.000000 0.048772 0.245197
v 1.000000 0.095671 0.230970
v -1.000000 0.095671 0.230970
v 1.000000 0.138892 0.207868
v -1.000000 0.138892 0.207868
v 1.000000 0.176777 0.176777
v -1.000000 0.176777 0.176777
v 1.000000 0.207867 0.138893
v -1.000000 0.207867 0.138893
v 1.000000 0.230970 0.095671
v -1.000000 0.230970 0.095671
v 1.000000 0.245196 0.048773
v -1.000000 0.245196 0.048773
v 1.000000 0.250000 0.000000
v -1.000000 0.250000 0.000000
v 1.000000 0.245197 -0.048773
v -1.000000 0.245197 -0.048773
v 1.000000 0.230970 -0.095671
v -1.000000 0.230970 -0.095671
v 1.000000 0.207867 -0.138893
v -1.000000 0.207867 -0.138893
v 1.000000 0.176777 -0.176777
v -1.000000 0.176777 -0.176777
v 1.000000 0.138893 -0.207867
v -1.000000 0.138893 -0.207867
v 1.000000 0.095671 -0.230970
v -1.000000 0.095671 -0.230970
v 1.000000 0.048772 -0.245196
v -1.000000 0.048772 -0.245196
vt 0.000120 0.749940
vt 0.447728 0.749939
vt 0.447728 0.781182
vt 0.000120 0.781182
vt 0.447728 0.812424
vt 0.000120 0.812425
vt 0.447728 0.843667
vt 0.000120 0.843668
vt 0.447728 0.874909
vt 0.000120 0.874910
vt 0.447728 0.906151
vt 0.000120 0.906153
vt 0.447728 0.937394
vt 0.000120 0.937395
vt 0.447728 0.968636
vt 0.000120 0.968638
vt 0.447728 0.999879
vt 0.000120 0.999880
vt 0.000120 0.000120
vt 0.447728 0.000121
vt 0.447728 0.031363
vt 0.000120 0.031363
vt 0.447728 0.062606
vt 0.000120 0.062605
vt 0.447728 0.093848
vt 0.000120 0.093848
vt 0.447728 0.125091
vt 0.000120 0.125090
vt 0.447728 0.156333
vt 0.000120 0.156333
vt 0.447728 0.187575
vt 0.000120 0.187575
vt 0.447728 0.218818
vt 0.000120 0.218818
vt 0.447728 0.250060
vt 0.000120 0.250060
vt 0.447728 0.281303
vt 0.000120 0.281303
vt 0.447728 0.312545
vt 0.000120 0.312545
vt 0.447728 0.343788
vt 0.000120 0.343788
vt 0.447728 0.375030
vt 0.000120 0.375030
vt 0.447728 0.406273
vt 0.000120 0.406273
vt 0.447728 0.437515
vt 0.000120 0.437515
vt 0.447728 0.468757
vt 0.000120 0.468758
vt 0.447728 0.500000
vt 0.000120 0.500000
vt 0.447728 0.531242
vt 0.000120 0.531242
vt 0.447728 0.562485
vt 0.000120 0.562485
vt 0.447728 0.593728
vt 0.000120 0.593727
vt 0.447728 0.624970
vt 0.000120 0.624970
vt 0.447728 0.656212
vt 0.000120 0.656213
vt 0.447728 0.687455
vt 0.000120 0.687455
vt 0.506581 0.299278
vt 0.488341 0.281921
vt 0.472830 0.259829
vt 0.460643 0.233852
vt 0.452248 0.204988
vt 0.447968 0.174346
vt 0.447969 0.143103
vt 0.452248 0.112461
vt 0.460643 0.083597
vt 0.472831 0.057619
vt 0.488342 0.035528
vt 0.506582 0.018171
vt 0.526849 0.006215
vt 0.548364 0.000120
vt 0.570301 0.000120
vt 0.591816 0.006216
vt 0.612083 0.018172
vt 0.630322 0.035529
vt 0.645834 0.057621
vt 0.658021 0.083599
vt 0.666416 0.112463
vt 0.670695 0.143105
vt 0.670695 0.174347
vt 0.666415 0.204989
vt 0.658020 0.233854
vt 0.645833 0.259831
vt 0.630321 0.281922
vt 0.612081 0.299280
vt 0.591815 0.311235
vt 0.570299 0.317330
vt 0.548363 0.317330
vt 0.526848 0.311235
vt 0.447728 0.718697
vt 0.000120 0.718697
vt 0.645833 0.375070
vt 0.658020 0.401046
vt 0.666415 0.429911
vt 0.670695 0.460553
vt 0.670695 0.491795
vt 0.666416 0.522438
vt 0.658021 0.551302
vt 0.645834 0.577279
vt 0.630322 0.599371
vt 0.612083 0.616728
vt 0.591816 0.628685
vt 0.570301 0.634780
vt 0.548364 0.634780
vt 0.526849 0.628685
vt 0.506582 0.616729
vt 0.488342 0.599372
vt 0.472831 0.577280
vt 0.460643 0.551303
vt 0.452248 0.522439
vt 0.447968 0.491797
vt 0.447968 0.460555
vt 0.452248 0.429913
vt 0.460643 0.401048
vt 0.472830 0.375071
vt 0.488341 0.352979
vt 0.506581 0.335621
vt 0.526848 0.323665
vt 0.548363 0.317570
vt 0.570300 0.317570
vt 0.591815 0.323665
vt 0.612082 0.335621
vt 0.630321 0.352978
vn 0.0000 -0.0980 -0.9952
vn 0.0000 -0.2903 -0.9569
vn 0.0000 -0.4714 -0.8819
vn 0.0000 -0.6344 -0.7730
vn 0.0000 -0.7730 -0.6344
vn 0.0000 -0.8819 -0.4714
vn 0.0000 -0.9569 -0.2903
vn 0.0000 -0.9952 -0.0980
vn 0.0000 -0.9952 0.0980
vn 0.0000 -0.9569 0.2903
vn 0.0000 -0.8819 0.4714
vn 0.0000 -0.7730 0.6344
vn 0.0000 -0.6344 0.7730
vn 0.0000 -0.4714 0.8819
vn 0.0000 -0.2903 0.9569
vn 0.0000 -0.0980 0.9952
vn 0.0000 0.0980 0.9952
vn 0.0000 0.2903 0.9569
vn 0.0000 0.4714 0.8819
vn 0.0000 0.6344 0.7730
vn 0.0000 0.7730 0.6344
vn 0.0000 0.8819 0.4714
vn 0.0000 0.9569 0.2903
vn 0.0000 0.9952 0.0980
vn 0.0000 0.9952 -0.0980
vn 0.0000 0.9569 -0.2903
vn 0.0000 0.8819 -0.4714
vn 0.0000 0.7730 -0.6344
vn 0.0000 0.6344 -0.7730
vn 0.0000 0.4714 -0.8819
vn 1.0000 0.0000 0.0000
vn 0.0000 0.2903 -0.9569
vn 0.0000 0.0980 -0.9952
vn -1.0000 -0.0000 0.0000
usemtl None
s 1
f 1/1/1 2/2/1 3/3/1 4/4/1
f 4/4/2 3/3/2 5/5/2 6/6/2
f 6/6/3 5/5/3 7/7/3 8/8/3
f 8/8/4 7/7/4 9/9/4 10/10/4
f 10/10/5 9/9/5 11/11/5 12/12/5
f 12/12/6 11/11/6 13/13/6 14/14/6
f 14/14/7 13/13/7 15/15/7 16/16/7
f 16/16/8 15/15/8 17/17/8 18/18/8
f 18/19/9 17/20/9 19/21/9 20/22/9
f 20/22/10 19/21/10 21/23/10 22/24/10
f 22/24/11 21/23/11 23/25/11 24/26/11
f 24/26/12 23/25/12 25/27/12 26/28/12
f 26/28/13 25/27/13 27/29/13 28/30/13
f 28/30/14 27/29/14 29/31/14 30/32/14
f 30/32/15 29/31/15 31/33/15 32/34/15
f 32/34/16 31/33/16 33/35/16 34/36/16
f 34/36/17 33/35/17 35/37/17 36/38/17
f 36/38/18 35/37/18 37/39/18 38/40/18
f 38/40/19 37/39/19 39/41/19 40/42/19
f 40/42/20 39/41/20 41/43/20 42/44/20
f 42/44/21 41/43/21 43/45/21 44/46/21
f 44/46/22 43/45/22 45/47/22 46/48/22
f 46/48/23 45/47/23 47/49/23 48/50/23
f 48/50/24 47/49/24 49/51/24 50/52/24
f 50/52/25 49/51/25 51/53/25 52/54/25
f 52/54/26 51/53/26 53/55/26 54/56/26
f 54/56/27 53/55/27 55/57/27 56/58/27
f 56/58/28 55/57/28 57/59/28 58/60/28
f 58/60/29 57/59/29 59/61/29 60/62/29
f 60/62/30 59/61/30 61/63/30 62/64/30
f 3/65/31 2/66/31 63/67/31 61/68/31 59/69/31 57/70/31 55/71/31 53/72/31 51/73/31 49/74/31 47/75/31 45/76/31 43/77/31 41/78/31 39/79/31 37/80/31 35/81/31 33/82/31 31/83/31 29/84/31 27/85/31 25/86/31 23/87/31 21/88/31 19/89/31 17/90/31 15/91/31 13/92/31 11/93/31 9/94/31 7/95/31 5/96/31
f 62/64/32 61/63/32 63/97/32 64/98/32
f 64/98/33 63/97/33 2/2/33 1/1/33
f 1/99/34 4/100/34 6/101/34 8/102/34 10/103/34 12/104/34 14/105/34 16/106/34 18/107/34 20/108/34 22/109/34 24/110/34 26/111/34 28/112/34 30/113/34 32/114/34 34/115/34 36/116/34 38/117/34 40/118/34 42/119/34 44/120/34 46/121/34 48/122/34 50/123/34 52/124/34 54/125/34 56/126/34 58/127/34 60/128/34 62/129/34 64/130/34
