# Blender v2.80 (sub 75) OBJ File: ''
# www.blender.org
mtllib snake_corner.mtl
o snake_corner_snake_corner_Cylinder.002
v 0.000000 -0.207867 -0.138893
v 0.000000 -0.176776 -0.176777
v 0.034488 -0.176776 -0.173380
v 0.027097 -0.207867 -0.136224
v 0.000000 0.095671 -0.230970
v 0.000000 0.138893 -0.207867
v 0.040553 0.138893 -0.203873
v 0.045060 0.095671 -0.226532
v 0.000000 -0.230970 -0.095671
v 0.018664 -0.230970 -0.093833
v 0.000000 0.048772 -0.245196
v 0.047835 0.048773 -0.240485
v 0.000000 -0.245196 -0.048773
v 0.009515 -0.245196 -0.047836
v 0.000000 0.000000 -0.250000
v 0.048772 0.000000 -0.245197
v 0.000000 0.245197 -0.048773
v -0.000000 0.250000 0.000000
v 0.009515 0.245197 -0.047835
v 0.000000 -0.250000 -0.000000
v 0.000000 -0.048772 -0.245197
v 0.047835 -0.048772 -0.240485
v 0.000000 0.230970 -0.095671
v 0.018664 0.230970 -0.093832
v 0.000000 -0.095671 -0.230970
v 0.045060 -0.095671 -0.226532
v 0.000000 0.207868 -0.138892
v 0.027097 0.207868 -0.136224
v 0.000000 -0.138892 -0.207868
v 0.040553 -0.138892 -0.203874
v 0.000000 0.176777 -0.176777
v 0.034488 0.176777 -0.173380
v 0.053152 0.207868 -0.128320
v 0.067649 0.176777 -0.163320
v 0.079548 -0.138892 -0.192045
v 0.067649 -0.176776 -0.163321
v 0.079548 0.138893 -0.192044
v 0.053152 -0.207867 -0.128320
v 0.088389 0.095671 -0.213388
v 0.036612 -0.230970 -0.088389
v 0.093833 0.048773 -0.226532
v 0.018664 -0.245197 -0.045060
v 0.095671 0.000000 -0.230970
v 0.018664 0.245197 -0.045060
v 0.093833 -0.048772 -0.226532
v 0.036612 0.230970 -0.088388
v 0.088389 -0.095671 -0.213389
v 0.136224 0.048773 -0.203873
v 0.138893 0.000000 -0.207868
v 0.027097 0.245197 -0.040553
v 0.027097 -0.245197 -0.040553
v 0.136224 -0.048772 -0.203874
v 0.053152 0.230970 -0.079547
v 0.128320 -0.095671 -0.192045
v 0.077165 0.207868 -0.115485
v 0.115485 -0.138892 -0.172836
v 0.098212 0.176777 -0.146984
v 0.098212 -0.176776 -0.146985
v 0.115485 0.138893 -0.172835
v 0.077165 -0.207867 -0.115485
v 0.128320 0.095671 -0.192044
v 0.053152 -0.230970 -0.079548
v 0.146985 -0.138892 -0.146985
v 0.125000 -0.176776 -0.125000
v 0.125000 0.176777 -0.125000
v 0.146985 0.138893 -0.146984
v 0.098212 -0.207867 -0.098212
v 0.163320 0.095671 -0.163320
v 0.067649 -0.230970 -0.067650
v 0.173380 0.048773 -0.173380
v 0.034488 -0.245197 -0.034488
v 0.176777 0.000000 -0.176776
v 0.034488 0.245197 -0.034487
v 0.173380 -0.048772 -0.173380
v 0.067649 0.230970 -0.067649
v 0.163320 -0.095671 -0.163321
v 0.098212 0.207868 -0.098212
v 0.040553 -0.245197 -0.027097
v 0.207868 0.000000 -0.138893
v 0.203874 -0.048772 -0.136224
v 0.040553 0.245197 -0.027096
v 0.079548 0.230970 -0.053152
v 0.192044 -0.095671 -0.128320
v 0.115485 0.207868 -0.077164
v 0.172835 -0.138892 -0.115485
v 0.146985 0.176777 -0.098212
v 0.146985 -0.176776 -0.098212
v 0.172835 0.138893 -0.115485
v 0.115485 -0.207867 -0.077165
v 0.192044 0.095671 -0.128320
v 0.079548 -0.230970 -0.053152
v 0.203874 0.048773 -0.136223
v 0.163320 -0.176776 -0.067650
v 0.128320 -0.207867 -0.053152
v 0.192044 0.138893 -0.079547
v 0.213389 0.095671 -0.088388
v 0.088389 -0.230970 -0.036612
v 0.226532 0.048773 -0.093832
v 0.045060 -0.245197 -0.018665
v 0.230970 0.000000 -0.095671
v 0.045060 0.245197 -0.018664
v 0.226532 -0.048772 -0.093833
v 0.088389 0.230970 -0.036611
v 0.213389 -0.095671 -0.088389
v 0.128320 0.207868 -0.053152
v 0.192044 -0.138892 -0.079548
v 0.163320 0.176777 -0.067649
v 0.047835 0.245197 -0.009515
v 0.093833 0.230970 -0.018664
v 0.240485 -0.048772 -0.047836
v 0.226532 -0.095671 -0.045060
v 0.136224 0.207868 -0.027096
v 0.203874 -0.138893 -0.040553
v 0.173380 0.176776 -0.034487
v 0.173380 -0.176776 -0.034488
v 0.203874 0.138893 -0.040553
v 0.136224 -0.207868 -0.027097
v 0.226532 0.095671 -0.045060
v 0.093833 -0.230970 -0.018665
v 0.240485 0.048773 -0.047835
v 0.047835 -0.245197 -0.009515
v 0.245197 0.000000 -0.048772
v 0.207868 0.138893 0.000000
v 0.230970 0.095671 0.000000
v 0.138893 -0.207868 -0.000000
v 0.095671 -0.230970 -0.000000
v 0.245197 0.048772 0.000000
v 0.048772 -0.245197 -0.000000
v 0.250000 0.000000 0.000000
v 0.048772 0.245197 0.000000
v 0.245197 -0.048772 -0.000000
v 0.095670 0.230970 0.000000
v 0.230970 -0.095671 -0.000000
v 0.138893 0.207868 0.000000
v 0.207868 -0.138893 -0.000000
v 0.176776 0.176777 0.000000
v 0.176777 -0.176776 -0.000000
v -0.250000 -0.000000 1.000000
v -0.250000 -0.000000 0.250000
v -0.245197 -0.048773 0.245196
v -0.245196 -0.048773 1.000000
v -0.230970 -0.095671 0.230970
v -0.230970 -0.095671 1.000000
v -0.207868 -0.138893 0.207867
v -0.207867 -0.138893 1.000000
v -0.176776 -0.176777 0.176776
v -0.176776 -0.176777 1.000000
v -0.138893 -0.207868 0.138892
v -0.138892 -0.207868 1.000000
v -0.095671 -0.230970 0.095671
v -0.095671 -0.230970 1.000000
v -0.048772 -0.245197 0.048772
v -0.048772 -0.245197 1.000000
v 0.000000 -0.250000 1.000000
v 0.048773 -0.245197 1.000000
v 0.095671 -0.230970 1.000000
v 0.138893 -0.207868 1.000000
v 0.176777 -0.176777 1.000000
v 0.207868 -0.138893 1.000000
v 0.230970 -0.095671 1.000000
v 0.245197 -0.048773 1.000000
v 0.250000 -0.000000 1.000000
v 0.245197 0.048772 1.000000
v 0.230970 0.095671 1.000000
v 0.207868 0.138892 1.000000
v 0.176777 0.176777 1.000000
v 0.138893 0.207867 1.000000
v 0.095671 0.230970 1.000000
v 0.048773 0.245196 1.000000
v 0.000000 0.250000 1.000000
v -0.048773 0.245196 0.048773
v -0.048773 0.245196 1.000000
v -0.095671 0.230970 0.095671
v -0.095671 0.230970 1.000000
v -0.138893 0.207867 0.138893
v -0.138893 0.207867 1.000000
v -0.176777 0.176777 0.176777
v -0.176777 0.176776 1.000000
v -0.207868 0.138892 0.207868
v -0.207867 0.138892 1.000000
v -0.230970 0.095671 0.230970
v -0.230970 0.095670 1.000000
v -0.245197 0.048772 0.245197
v -0.245196 0.048772 1.000000
v -1.000000 0.000000 -0.250000
v -1.000000 -0.048772 -0.245197
v -1.000000 -0.095671 -0.230970
v -1.000000 -0.138892 -0.207868
v -1.000000 -0.176776 -0.176777
v -1.000000 -0.207867 -0.138893
v -1.000000 -0.230970 -0.095671
v -1.000000 -0.245196 -0.048773
v -1.000000 -0.250000 -0.000000
v -1.000000 -0.245197 0.048772
v -1.000000 -0.230970 0.095671
v -1.000000 -0.207868 0.138892
v -1.000000 -0.176777 0.176776
v -1.000000 -0.138893 0.207867
v -1.000000 -0.095671 0.230970
v -1.000000 -0.048773 0.245196
v -1.000000 -0.000000 0.250000
v -1.000000 0.048772 0.245197
v -1.000000 0.095671 0.230970
v -1.000000 0.138892 0.207868
v -1.000000 0.176777 0.176777
v -1.000000 0.207867 0.138893
v -1.000000 0.230970 0.095671
v -1.000000 0.245196 0.048773
v -1.000000 0.250000 0.000000
v -1.000000 0.245197 -0.048773
v -1.000000 0.230970 -0.095671
v -1.000000 0.207867 -0.138893
v -1.000000 0.176777 -0.176777
v -1.000000 0.138893 -0.207867
v -1.000000 0.095671 -0.230970
v -1.000000 0.048772 -0.245196
vt 0.327427 0.354736
vt 0.335255 0.323810
vt 0.349858 0.333614
vt 0.339040 0.361767
vt 0.949501 0.439446
vt 0.925722 0.442490
vt 0.922889 0.415298
vt 0.945825 0.408148
vt 0.320614 0.386189
vt 0.328853 0.390617
vt 0.974124 0.435694
vt 0.970003 0.400441
vt 0.314815 0.418694
vt 0.319200 0.420757
vt 0.999879 0.432040
vt 0.996328 0.392540
vt 0.833317 0.441830
vt 0.809716 0.437631
vt 0.833343 0.435334
vt 0.310008 0.452551
vt 0.365131 0.229228
vt 0.376537 0.195402
vt 0.401998 0.214004
vt 0.387209 0.247178
vt 0.856546 0.444303
vt 0.856206 0.431879
vt 0.354120 0.261562
vt 0.373903 0.276945
vt 0.879506 0.445079
vt 0.878521 0.427310
vt 0.344142 0.292914
vt 0.361433 0.305561
vt 0.902473 0.444466
vt 0.900602 0.421671
vt 0.875554 0.410233
vt 0.896450 0.400026
vt 0.377077 0.321141
vt 0.363034 0.346129
vt 0.917568 0.389289
vt 0.349536 0.371178
vt 0.939453 0.377890
vt 0.336338 0.396903
vt 0.962866 0.365698
vt 0.323213 0.423904
vt 0.989020 0.352564
vt 0.832524 0.429011
vt 0.425616 0.238453
vt 0.407848 0.268425
vt 0.854393 0.419861
vt 0.391796 0.295720
vt 0.952283 0.332378
vt 0.977466 0.313213
vt 0.830912 0.423046
vt 0.326736 0.428016
vt 0.446605 0.267408
vt 0.426185 0.293533
vt 0.851189 0.408589
vt 0.407803 0.317207
vt 0.870781 0.394207
vt 0.390776 0.339565
vt 0.890139 0.379692
vt 0.374616 0.361091
vt 0.909785 0.364777
vt 0.358746 0.382701
vt 0.930249 0.349154
vt 0.342903 0.404836
vt 0.402546 0.360219
vt 0.384394 0.378246
vt 0.881811 0.361028
vt 0.899647 0.342163
vt 0.366520 0.396067
vt 0.918295 0.322613
vt 0.348408 0.414190
vt 0.938615 0.301144
vt 0.329668 0.432956
vt 0.961009 0.277160
vt 0.828579 0.417605
vt 0.464406 0.300082
vt 0.441881 0.321798
vt 0.846701 0.398310
vt 0.421508 0.341599
vt 0.864331 0.379563
vt 0.331924 0.438573
vt 0.478685 0.335493
vt 0.454743 0.352602
vt 0.825588 0.412864
vt 0.841047 0.389272
vt 0.432710 0.368322
vt 0.856296 0.366576
vt 0.412153 0.383043
vt 0.871653 0.344267
vt 0.392330 0.397181
vt 0.887352 0.321904
vt 0.372707 0.410991
vt 0.903984 0.298509
vt 0.352729 0.424730
vt 0.921856 0.273215
vt 0.941288 0.245628
vt 0.398281 0.417667
vt 0.377211 0.427227
vt 0.873146 0.304064
vt 0.887316 0.277577
vt 0.355761 0.436211
vt 0.902468 0.249231
vt 0.333447 0.444688
vt 0.919315 0.218000
vt 0.822029 0.408972
vt 0.490046 0.372932
vt 0.464312 0.385604
vt 0.834361 0.381713
vt 0.441262 0.396939
vt 0.846853 0.355530
vt 0.419458 0.407607
vt 0.859704 0.329856
vt 0.818007 0.406062
vt 0.826796 0.375854
vt 0.471109 0.419747
vt 0.447208 0.426967
vt 0.836167 0.346696
vt 0.424400 0.433571
vt 0.846206 0.318043
vt 0.402120 0.439383
vt 0.857018 0.289314
vt 0.379928 0.444448
vt 0.868698 0.259847
vt 0.357394 0.448399
vt 0.881086 0.229184
vt 0.334165 0.451139
vt 0.894869 0.194944
vt 0.497057 0.412178
vt 0.839329 0.277673
vt 0.848368 0.245669
vt 0.380694 0.462309
vt 0.357556 0.460956
vt 0.858357 0.212581
vt 0.334026 0.457740
vt 0.868678 0.177895
vt 0.813644 0.404246
vt 0.500511 0.451060
vt 0.475014 0.454563
vt 0.818527 0.371903
vt 0.450596 0.458017
vt 0.824425 0.340335
vt 0.426939 0.460672
vt 0.831348 0.309078
vt 0.403721 0.462204
vt 0.118557 0.823093
vt 0.100481 0.662601
vt 0.121565 0.641407
vt 0.140647 0.818047
vt 0.145679 0.617194
vt 0.161889 0.813752
vt 0.172108 0.590680
vt 0.183636 0.810528
vt 0.199984 0.562733
vt 0.206041 0.808520
vt 0.228404 0.534257
vt 0.229142 0.807649
vt 0.256567 0.506051
vt 0.252876 0.807695
vt 0.283880 0.478705
vt 0.277118 0.808366
vt 0.301714 0.809369
vt 0.326527 0.810447
vt 0.351301 0.811418
vt 0.376069 0.812229
vt 0.400858 0.812860
vt 0.425686 0.813309
vt 0.450568 0.813592
vt 0.475510 0.813739
vt 0.500511 0.813789
vt 0.622225 0.073367
vt 0.615031 0.107771
vt 0.607885 0.142170
vt 0.600843 0.176481
vt 0.593926 0.210739
vt 0.587150 0.244983
vt 0.580520 0.279245
vt 0.574033 0.313551
vt 0.567674 0.347919
vt 0.784174 0.464773
vt 0.561391 0.382380
vt 0.571063 0.347198
vt 0.757377 0.489901
vt 0.562128 0.379510
vt 0.729459 0.516081
vt 0.553029 0.411011
vt 0.701019 0.542750
vt 0.543612 0.441406
vt 0.672890 0.569127
vt 0.533746 0.470508
vt 0.646028 0.594316
vt 0.523354 0.498318
vt 0.621370 0.617438
vt 0.512461 0.525076
vt 0.599698 0.637761
vt 0.500754 0.552700
vt 0.135058 0.073367
vt 0.126660 0.107077
vt 0.118308 0.140788
vt 0.110058 0.174419
vt 0.101928 0.208008
vt 0.093928 0.241592
vt 0.086058 0.275201
vt 0.078309 0.308858
vt 0.070661 0.342573
vt 0.063069 0.376041
vt 0.055377 0.408913
vt 0.047443 0.440884
vt 0.039115 0.471687
vt 0.030270 0.501163
vt 0.020841 0.529338
vt 0.010873 0.556468
vt 0.000122 0.584488
vt 0.615462 0.800823
vt 0.637906 0.796422
vt 0.659469 0.792745
vt 0.681513 0.790138
vt 0.704183 0.788731
vt 0.727508 0.788423
vt 0.751422 0.788966
vt 0.775794 0.790046
vt 0.800599 0.791343
vt 0.825410 0.792593
vt 0.850205 0.793687
vt 0.875016 0.794585
vt 0.899865 0.795275
vt 0.924767 0.795762
vt 0.949736 0.796068
vt 0.974776 0.796227
vt 0.999879 0.796282
vn 0.0624 -0.7715 -0.6332
vn 0.0865 0.4696 -0.8786
vn 0.0464 -0.8810 -0.4709
vn 0.0938 0.2890 -0.9527
vn 0.0286 -0.9565 -0.2902
vn 0.0975 0.0975 -0.9904
vn 0.0095 0.9952 -0.0978
vn 0.0072 0.9952 -0.0980
vn 0.0097 0.9951 -0.0980
vn 0.0072 -0.9952 -0.0980
vn 0.0095 -0.9952 -0.0977
vn 0.0097 -0.9951 -0.0980
vn 0.0975 -0.0975 -0.9904
vn 0.0286 0.9565 -0.2902
vn 0.0938 -0.2890 -0.9527
vn 0.0464 0.8810 -0.4709
vn 0.0865 -0.4696 -0.8786
vn 0.0624 0.7715 -0.6332
vn 0.0759 -0.6326 -0.7708
vn 0.0759 0.6326 -0.7708
vn 0.1847 0.7715 -0.6088
vn 0.2248 -0.6326 -0.7412
vn 0.2248 0.6326 -0.7412
vn 0.1847 -0.7715 -0.6088
vn 0.2563 0.4696 -0.8448
vn 0.1374 -0.8810 -0.4528
vn 0.2779 0.2890 -0.9161
vn 0.0846 -0.9565 -0.2790
vn 0.2889 0.0976 -0.9524
vn 0.0286 0.9951 -0.0942
vn 0.0286 -0.9951 -0.0942
vn 0.2889 -0.0976 -0.9524
vn 0.0846 0.9565 -0.2790
vn 0.2779 -0.2890 -0.9161
vn 0.1374 0.8810 -0.4528
vn 0.2563 -0.4696 -0.8448
vn 0.4691 0.0975 -0.8777
vn 0.0464 0.9951 -0.0869
vn 0.0464 -0.9951 -0.0869
vn 0.4691 -0.0975 -0.8777
vn 0.1374 0.9565 -0.2571
vn 0.4513 -0.2890 -0.8443
vn 0.2230 0.8810 -0.4173
vn 0.4162 -0.4696 -0.7786
vn 0.2999 0.7715 -0.5611
vn 0.3651 -0.6326 -0.6831
vn 0.3651 0.6326 -0.6831
vn 0.2999 -0.7715 -0.5611
vn 0.4162 0.4696 -0.7786
vn 0.2231 -0.8810 -0.4173
vn 0.4513 0.2890 -0.8443
vn 0.1374 -0.9565 -0.2571
vn 0.4913 -0.6326 -0.5987
vn 0.4913 0.6326 -0.5987
vn 0.4036 -0.7715 -0.4918
vn 0.5601 0.4696 -0.6825
vn 0.3002 -0.8810 -0.3658
vn 0.6073 0.2890 -0.7400
vn 0.1850 -0.9565 -0.2254
vn 0.6314 0.0975 -0.7693
vn 0.0625 0.9951 -0.0761
vn 0.0625 -0.9951 -0.0761
vn 0.6314 -0.0975 -0.7693
vn 0.1850 0.9565 -0.2254
vn 0.6073 -0.2890 -0.7400
vn 0.3002 0.8810 -0.3658
vn 0.5601 -0.4696 -0.6825
vn 0.4036 0.7715 -0.4918
vn 0.0761 -0.9951 -0.0625
vn 0.7693 -0.0976 -0.6314
vn 0.2254 0.9565 -0.1850
vn 0.7400 -0.2890 -0.6073
vn 0.3658 0.8810 -0.3002
vn 0.6825 -0.4696 -0.5601
vn 0.4918 0.7715 -0.4036
vn 0.5987 -0.6326 -0.4913
vn 0.5987 0.6326 -0.4913
vn 0.4918 -0.7715 -0.4036
vn 0.6825 0.4696 -0.5601
vn 0.3658 -0.8810 -0.3002
vn 0.7400 0.2890 -0.6073
vn 0.2254 -0.9565 -0.1850
vn 0.7693 0.0976 -0.6314
vn 0.0761 0.9951 -0.0625
vn 0.5611 -0.7715 -0.2999
vn 0.7786 0.4696 -0.4162
vn 0.4173 -0.8810 -0.2230
vn 0.8443 0.2890 -0.4513
vn 0.2571 -0.9565 -0.1374
vn 0.8777 0.0976 -0.4691
vn 0.0869 0.9951 -0.0464
vn 0.0869 -0.9951 -0.0464
vn 0.8777 -0.0976 -0.4691
vn 0.2571 0.9565 -0.1374
vn 0.8443 -0.2890 -0.4513
vn 0.4173 0.8810 -0.2231
vn 0.7786 -0.4696 -0.4162
vn 0.5611 0.7715 -0.2999
vn 0.6831 -0.6326 -0.3651
vn 0.6831 0.6326 -0.3651
vn 0.2790 0.9565 -0.0846
vn 0.9161 -0.2890 -0.2779
vn 0.4528 0.8810 -0.1374
vn 0.8448 -0.4696 -0.2563
vn 0.6088 0.7715 -0.1847
vn 0.7412 -0.6326 -0.2248
vn 0.7412 0.6326 -0.2248
vn 0.6088 -0.7715 -0.1847
vn 0.8448 0.4696 -0.2563
vn 0.4528 -0.8810 -0.1374
vn 0.9161 0.2890 -0.2779
vn 0.2790 -0.9565 -0.0846
vn 0.9524 0.0976 -0.2889
vn 0.0942 0.9951 -0.0286
vn 0.0942 -0.9951 -0.0286
vn 0.9524 -0.0976 -0.2889
vn 0.8786 0.4696 -0.0865
vn 0.4709 -0.8810 -0.0464
vn 0.9527 0.2890 -0.0938
vn 0.2902 -0.9565 -0.0286
vn 0.9904 0.0975 -0.0975
vn 0.0980 0.9951 -0.0097
vn 0.0980 0.9952 -0.0072
vn 0.0978 0.9952 -0.0095
vn 0.0980 -0.9952 -0.0072
vn 0.0980 -0.9951 -0.0096
vn 0.0976 -0.9952 -0.0094
vn 0.9904 -0.0975 -0.0975
vn 0.2902 0.9565 -0.0286
vn 0.9527 -0.2890 -0.0938
vn 0.4709 0.8810 -0.0464
vn 0.8786 -0.4696 -0.0865
vn 0.6332 0.7715 -0.0624
vn 0.7708 -0.6326 -0.0759
vn 0.7708 0.6326 -0.0759
vn 0.6332 -0.7715 -0.0624
vn -0.9952 -0.0980 0.0000
vn -0.9569 -0.2903 0.0000
vn -0.8819 -0.4714 0.0000
vn -0.7730 -0.6344 -0.0000
vn -0.6344 -0.7730 -0.0000
vn -0.4714 -0.8819 -0.0000
vn -0.2903 -0.9569 -0.0000
vn -0.0980 -0.9952 -0.0000
vn 0.0980 -0.9952 -0.0000
vn 0.2903 -0.9569 -0.0000
vn 0.4714 -0.8819 -0.0000
vn 0.6344 -0.7730 -0.0000
vn 0.7730 -0.6344 0.0000
vn 0.8819 -0.4714 -0.0000
vn 0.9569 -0.2903 -0.0000
vn 0.9952 -0.0980 -0.0000
vn 0.9952 0.0980 -0.0000
vn 0.9569 0.2903 -0.0000
vn 0.8819 0.4714 0.0000
vn 0.7730 0.6344 0.0000
vn 0.6344 0.7730 0.0000
vn 0.4714 0.8819 0.0000
vn 0.2903 0.9569 0.0000
vn 0.0980 0.9952 0.0000
vn -0.0980 0.9952 0.0000
vn -0.2903 0.9569 0.0000
vn -0.4714 0.8819 0.0000
vn -0.6344 0.7730 0.0000
vn -0.7730 0.6344 0.0000
vn -0.8819 0.4714 0.0000
vn -0.9569 0.2903 0.0000
vn -0.9952 0.0980 0.0000
vn 0.0000 -0.0980 -0.9952
vn 0.0000 -0.2903 -0.9569
vn 0.0000 -0.4714 -0.8819
vn 0.0000 -0.6344 -0.7730
vn 0.0000 -0.7730 -0.6344
vn 0.0000 -0.8819 -0.4714
vn 0.0000 -0.9569 -0.2903
vn 0.0000 -0.9952 -0.0980
vn 0.0000 -0.9952 0.0980
vn 0.0000 -0.9569 0.2903
vn 0.0000 -0.8819 0.4714
vn 0.0000 -0.7730 0.6344
vn 0.0000 -0.6344 0.7730
vn 0.0000 -0.4714 0.8819
vn 0.0000 -0.2903 0.9569
vn 0.0000 -0.0980 0.9952
vn 0.0000 0.0980 0.9952
vn 0.0000 0.2903 0.9569
vn 0.0000 0.4714 0.8819
vn 0.0000 0.6344 0.7730
vn 0.0000 0.7730 0.6344
vn 0.0000 0.8819 0.4714
vn 0.0000 0.9569 0.2903
vn 0.0000 0.9952 0.0980
vn 0.0000 0.9952 -0.0980
vn 0.0000 0.9569 -0.2903
vn -0.0000 0.8819 -0.4714
vn -0.0000 0.7730 -0.6344
vn 0.0000 0.6344 -0.7730
vn -0.0000 0.4714 -0.8819
vn -0.0000 0.2903 -0.9569
vn 0.0000 0.0980 -0.9952
usemtl None.001
s 1
f 1/1/1 2/2/1 3/3/1 4/4/1
f 5/5/2 6/6/2 7/7/2 8/8/2
f 9/9/3 1/1/3 4/4/3 10/10/3
f 11/11/4 5/5/4 8/8/4 12/12/4
f 13/13/5 9/9/5 10/10/5 14/14/5
f 15/15/6 11/11/6 12/12/6 16/16/6
f 17/17/7 18/18/8 19/19/9
f 20/20/10 13/13/11 14/14/12
f 21/21/13 15/22/13 16/23/13 22/24/13
f 23/25/14 17/17/14 19/19/14 24/26/14
f 25/27/15 21/21/15 22/24/15 26/28/15
f 27/29/16 23/25/16 24/26/16 28/30/16
f 29/31/17 25/27/17 26/28/17 30/32/17
f 31/33/18 27/29/18 28/30/18 32/34/18
f 2/2/19 29/31/19 30/32/19 3/3/19
f 6/6/20 31/33/20 32/34/20 7/7/20
f 32/34/21 28/30/21 33/35/21 34/36/21
f 3/3/22 30/32/22 35/37/22 36/38/22
f 7/7/23 32/34/23 34/36/23 37/39/23
f 4/4/24 3/3/24 36/38/24 38/40/24
f 8/8/25 7/7/25 37/39/25 39/41/25
f 10/10/26 4/4/26 38/40/26 40/42/26
f 12/12/27 8/8/27 39/41/27 41/43/27
f 14/14/28 10/10/28 40/42/28 42/44/28
f 16/16/29 12/12/29 41/43/29 43/45/29
f 19/19/30 18/18/30 44/46/30
f 20/20/31 14/14/31 42/44/31
f 22/24/32 16/23/32 43/47/32 45/48/32
f 24/26/33 19/19/33 44/46/33 46/49/33
f 26/28/34 22/24/34 45/48/34 47/50/34
f 28/30/35 24/26/35 46/49/35 33/35/35
f 30/32/36 26/28/36 47/50/36 35/37/36
f 43/45/37 41/43/37 48/51/37 49/52/37
f 44/46/38 18/18/38 50/53/38
f 20/20/39 42/44/39 51/54/39
f 45/48/40 43/47/40 49/55/40 52/56/40
f 46/49/41 44/46/41 50/53/41 53/57/41
f 47/50/42 45/48/42 52/56/42 54/58/42
f 33/35/43 46/49/43 53/57/43 55/59/43
f 35/37/44 47/50/44 54/58/44 56/60/44
f 34/36/45 33/35/45 55/59/45 57/61/45
f 36/38/46 35/37/46 56/60/46 58/62/46
f 37/39/47 34/36/47 57/61/47 59/63/47
f 38/40/48 36/38/48 58/62/48 60/64/48
f 39/41/49 37/39/49 59/63/49 61/65/49
f 40/42/50 38/40/50 60/64/50 62/66/50
f 41/43/51 39/41/51 61/65/51 48/51/51
f 42/44/52 40/42/52 62/66/52 51/54/52
f 58/62/53 56/60/53 63/67/53 64/68/53
f 59/63/54 57/61/54 65/69/54 66/70/54
f 60/64/55 58/62/55 64/68/55 67/71/55
f 61/65/56 59/63/56 66/70/56 68/72/56
f 62/66/57 60/64/57 67/71/57 69/73/57
f 48/51/58 61/65/58 68/72/58 70/74/58
f 51/54/59 62/66/59 69/73/59 71/75/59
f 49/52/60 48/51/60 70/74/60 72/76/60
f 50/53/61 18/18/61 73/77/61
f 20/20/62 51/54/62 71/75/62
f 52/56/63 49/55/63 72/78/63 74/79/63
f 53/57/64 50/53/64 73/77/64 75/80/64
f 54/58/65 52/56/65 74/79/65 76/81/65
f 55/59/66 53/57/66 75/80/66 77/82/66
f 56/60/67 54/58/67 76/81/67 63/67/67
f 57/61/68 55/59/68 77/82/68 65/69/68
f 20/20/69 71/75/69 78/83/69
f 74/79/70 72/78/70 79/84/70 80/85/70
f 75/80/71 73/77/71 81/86/71 82/87/71
f 76/81/72 74/79/72 80/85/72 83/88/72
f 77/82/73 75/80/73 82/87/73 84/89/73
f 63/67/74 76/81/74 83/88/74 85/90/74
f 65/69/75 77/82/75 84/89/75 86/91/75
f 64/68/76 63/67/76 85/90/76 87/92/76
f 66/70/77 65/69/77 86/91/77 88/93/77
f 67/71/78 64/68/78 87/92/78 89/94/78
f 68/72/79 66/70/79 88/93/79 90/95/79
f 69/73/80 67/71/80 89/94/80 91/96/80
f 70/74/81 68/72/81 90/95/81 92/97/81
f 71/75/82 69/73/82 91/96/82 78/83/82
f 72/76/83 70/74/83 92/97/83 79/98/83
f 73/77/84 18/18/84 81/86/84
f 89/94/85 87/92/85 93/99/85 94/100/85
f 90/95/86 88/93/86 95/101/86 96/102/86
f 91/96/87 89/94/87 94/100/87 97/103/87
f 92/97/88 90/95/88 96/102/88 98/104/88
f 78/83/89 91/96/89 97/103/89 99/105/89
f 79/98/90 92/97/90 98/104/90 100/106/90
f 81/86/91 18/18/91 101/107/91
f 20/20/92 78/83/92 99/105/92
f 80/85/93 79/84/93 100/108/93 102/109/93
f 82/87/94 81/86/94 101/107/94 103/110/94
f 83/88/95 80/85/95 102/109/95 104/111/95
f 84/89/96 82/87/96 103/110/96 105/112/96
f 85/90/97 83/88/97 104/111/97 106/113/97
f 86/91/98 84/89/98 105/112/98 107/114/98
f 87/92/99 85/90/99 106/113/99 93/99/99
f 88/93/100 86/91/100 107/114/100 95/101/100
f 103/110/101 101/107/101 108/115/101 109/116/101
f 104/111/102 102/109/102 110/117/102 111/118/102
f 105/112/103 103/110/103 109/116/103 112/119/103
f 106/113/104 104/111/104 111/118/104 113/120/104
f 107/114/105 105/112/105 112/119/105 114/121/105
f 93/99/106 106/113/106 113/120/106 115/122/106
f 95/101/107 107/114/107 114/121/107 116/123/107
f 94/100/108 93/99/108 115/122/108 117/124/108
f 96/102/109 95/101/109 116/123/109 118/125/109
f 97/103/110 94/100/110 117/124/110 119/126/110
f 98/104/111 96/102/111 118/125/111 120/127/111
f 99/105/112 97/103/112 119/126/112 121/128/112
f 100/106/113 98/104/113 120/127/113 122/129/113
f 101/107/114 18/18/114 108/115/114
f 20/20/115 99/105/115 121/128/115
f 102/109/116 100/108/116 122/130/116 110/117/116
f 118/125/117 116/123/117 123/131/117 124/132/117
f 119/126/118 117/124/118 125/133/118 126/134/118
f 120/127/119 118/125/119 124/132/119 127/135/119
f 121/128/120 119/126/120 126/134/120 128/136/120
f 122/129/121 120/127/121 127/135/121 129/137/121
f 108/115/122 18/18/123 130/138/124
f 20/20/125 121/128/126 128/136/127
f 110/117/128 122/130/128 129/139/128 131/140/128
f 109/116/129 108/115/129 130/138/129 132/141/129
f 111/118/130 110/117/130 131/140/130 133/142/130
f 112/119/131 109/116/131 132/141/131 134/143/131
f 113/120/132 111/118/132 133/142/132 135/144/132
f 114/121/133 112/119/133 134/143/133 136/145/133
f 115/122/134 113/120/134 135/144/134 137/146/134
f 116/123/135 114/121/135 136/145/135 123/131/135
f 117/124/136 115/122/136 137/146/136 125/133/136
f 138/147/137 139/148/137 140/149/137 141/150/137
f 141/150/138 140/149/138 142/151/138 143/152/138
f 143/152/139 142/151/139 144/153/139 145/154/139
f 145/154/140 144/153/140 146/155/140 147/156/140
f 147/156/141 146/155/141 148/157/141 149/158/141
f 149/158/142 148/157/142 150/159/142 151/160/142
f 151/160/143 150/159/143 152/161/143 153/162/143
f 153/162/144 152/161/144 20/20/144 154/163/144
f 154/163/145 20/20/125 128/136/127 155/164/145
f 155/164/146 128/136/146 126/134/146 156/165/146
f 156/165/147 126/134/147 125/133/147 157/166/147
f 157/166/148 125/133/148 137/146/148 158/167/148
f 158/167/149 137/146/149 135/144/149 159/168/149
f 159/168/150 135/144/150 133/142/150 160/169/150
f 160/169/151 133/142/151 131/140/151 161/170/151
f 161/170/152 131/140/152 129/139/152 162/171/152
f 162/172/153 129/137/153 127/135/153 163/173/153
f 163/173/154 127/135/154 124/132/154 164/174/154
f 164/174/155 124/132/155 123/131/155 165/175/155
f 165/175/156 123/131/156 136/145/156 166/176/156
f 166/176/157 136/145/157 134/143/157 167/177/157
f 167/177/158 134/143/158 132/141/158 168/178/158
f 168/178/159 132/141/159 130/138/159 169/179/159
f 169/179/160 130/138/124 18/18/123 170/180/160
f 170/180/161 18/18/161 171/181/161 172/182/161
f 172/183/162 171/181/162 173/184/162 174/185/162
f 174/185/163 173/184/163 175/186/163 176/187/163
f 176/187/164 175/186/164 177/188/164 178/189/164
f 178/189/165 177/188/165 179/190/165 180/191/165
f 180/191/166 179/190/166 181/192/166 182/193/166
f 182/193/167 181/192/167 183/194/167 184/195/167
f 184/195/168 183/194/168 139/196/168 138/197/168
f 185/198/169 15/22/169 21/21/169 186/199/169
f 186/199/170 21/21/170 25/27/170 187/200/170
f 187/200/171 25/27/171 29/31/171 188/201/171
f 188/201/172 29/31/172 2/2/172 189/202/172
f 189/202/173 2/2/173 1/1/173 190/203/173
f 190/203/174 1/1/174 9/9/174 191/204/174
f 191/204/175 9/9/175 13/13/175 192/205/175
f 192/205/176 13/13/11 20/20/10 193/206/176
f 193/206/177 20/20/177 152/161/177 194/207/177
f 194/207/178 152/161/178 150/159/178 195/208/178
f 195/208/179 150/159/179 148/157/179 196/209/179
f 196/209/180 148/157/180 146/155/180 197/210/180
f 197/210/181 146/155/181 144/153/181 198/211/181
f 198/211/182 144/153/182 142/151/182 199/212/182
f 199/212/183 142/151/183 140/149/183 200/213/183
f 200/213/184 140/149/184 139/148/184 201/214/184
f 201/215/185 139/196/185 183/194/185 202/216/185
f 202/216/186 183/194/186 181/192/186 203/217/186
f 203/217/187 181/192/187 179/190/187 204/218/187
f 204/218/188 179/190/188 177/188/188 205/219/188
f 205/219/189 177/188/189 175/186/189 206/220/189
f 206/220/190 175/186/190 173/184/190 207/221/190
f 207/221/191 173/184/191 171/181/191 208/222/191
f 208/222/192 171/181/192 18/18/192 209/223/192
f 209/223/193 18/18/8 17/17/7 210/224/193
f 210/224/194 17/17/194 23/25/194 211/225/194
f 211/225/195 23/25/195 27/29/195 212/226/195
f 212/226/196 27/29/196 31/33/196 213/227/196
f 213/227/197 31/33/197 6/6/197 214/228/197
f 214/228/198 6/6/198 5/5/198 215/229/198
f 215/229/199 5/5/199 11/11/199 216/230/199
f 216/230/200 11/11/200 15/15/200 185/231/200
