# ground.obj
#

mtllib square.mtl
o ground

v -0.500000 -0.0 0.500000
v 0.500000 -0.0 0.500000
v -0.500000 0.0 0.500000
v 0.500000 0.0 0.500000
v -0.500000 0.0 -0.500000
v 0.500000 0.0 -0.500000
v -0.500000 -0.0 -0.500000
v 0.500000 -0.0 -0.500000

vt 0.400000 0.400000
vt 0.600000 0.400000
vt 0.400000 0.600000
vt 0.600000 0.600000

vn 0.000000 0.000000 1.000000
vn 0.000000 1.000000 0.000000
vn 0.000000 0.000000 -1.000000
vn 0.000000 -1.000000 0.000000
vn 1.000000 0.000000 0.000000
vn -1.000000 0.000000 0.000000


g ground
usemtl groundface
f 3/1/2 4/2/2 5/3/2
f 5/3/2 4/2/2 6/4/2
